<mxfile host="app.diagrams.net" modified="2023-02-15T02:20:23.161Z" agent="5.0 (Windows NT 10.0; Win64; x64) AppleWebKit/537.36 (KHTML, like Gecko) Chrome/110.0.0.0 Safari/537.36 Edg/110.0.1587.41" etag="cZ87zbLr_hnV6dTy4DVu" version="20.8.20" type="github">
  <diagram name="第 1 页" id="A93E-pW6Ka4gn5TaSpeA">
    <mxGraphModel dx="1434" dy="796" grid="1" gridSize="10" guides="1" tooltips="1" connect="1" arrows="1" fold="1" page="1" pageScale="1" pageWidth="827" pageHeight="1169" math="0" shadow="0">
      <root>
        <mxCell id="0" />
        <mxCell id="1" parent="0" />
        <mxCell id="uApP3Ad0hTk_tkcARhOH-1" value="" style="whiteSpace=wrap;html=1;align=center;" vertex="1" parent="1">
          <mxGeometry x="130" y="280" width="510" height="250" as="geometry" />
        </mxCell>
        <mxCell id="uApP3Ad0hTk_tkcARhOH-2" value="" style="whiteSpace=wrap;html=1;align=center;" vertex="1" parent="1">
          <mxGeometry x="170" y="305" width="170" height="210" as="geometry" />
        </mxCell>
        <mxCell id="uApP3Ad0hTk_tkcARhOH-3" value="" style="whiteSpace=wrap;html=1;align=center;" vertex="1" parent="1">
          <mxGeometry x="414" y="305" width="156" height="185" as="geometry" />
        </mxCell>
        <mxCell id="uApP3Ad0hTk_tkcARhOH-4" value="向量产生电路" style="whiteSpace=wrap;html=1;align=center;" vertex="1" parent="1">
          <mxGeometry x="190" y="330" width="150" height="30" as="geometry" />
        </mxCell>
        <mxCell id="uApP3Ad0hTk_tkcARhOH-14" style="edgeStyle=orthogonalEdgeStyle;rounded=0;orthogonalLoop=1;jettySize=auto;html=1;exitX=0.5;exitY=0;exitDx=0;exitDy=0;entryX=0.5;entryY=1;entryDx=0;entryDy=0;" edge="1" parent="1" source="uApP3Ad0hTk_tkcARhOH-5" target="uApP3Ad0hTk_tkcARhOH-4">
          <mxGeometry relative="1" as="geometry" />
        </mxCell>
        <mxCell id="uApP3Ad0hTk_tkcARhOH-5" value="BIST控制电路" style="whiteSpace=wrap;html=1;align=center;" vertex="1" parent="1">
          <mxGeometry x="180" y="390" width="150" height="30" as="geometry" />
        </mxCell>
        <mxCell id="uApP3Ad0hTk_tkcARhOH-22" style="edgeStyle=orthogonalEdgeStyle;rounded=0;orthogonalLoop=1;jettySize=auto;html=1;exitX=1;exitY=0.5;exitDx=0;exitDy=0;entryX=0.5;entryY=1;entryDx=0;entryDy=0;" edge="1" parent="1" source="uApP3Ad0hTk_tkcARhOH-5" target="uApP3Ad0hTk_tkcARhOH-7">
          <mxGeometry relative="1" as="geometry" />
        </mxCell>
        <mxCell id="uApP3Ad0hTk_tkcARhOH-6" value="响应分析电路" style="whiteSpace=wrap;html=1;align=center;" vertex="1" parent="1">
          <mxGeometry x="180" y="450" width="150" height="30" as="geometry" />
        </mxCell>
        <mxCell id="uApP3Ad0hTk_tkcARhOH-19" style="edgeStyle=orthogonalEdgeStyle;rounded=0;orthogonalLoop=1;jettySize=auto;html=1;exitX=1;exitY=0.5;exitDx=0;exitDy=0;entryX=0;entryY=0.5;entryDx=0;entryDy=0;" edge="1" parent="1" source="uApP3Ad0hTk_tkcARhOH-7" target="uApP3Ad0hTk_tkcARhOH-8">
          <mxGeometry relative="1" as="geometry" />
        </mxCell>
        <mxCell id="uApP3Ad0hTk_tkcARhOH-7" value="MUX" style="whiteSpace=wrap;html=1;align=center;" vertex="1" parent="1">
          <mxGeometry x="430" y="330" width="40" height="50" as="geometry" />
        </mxCell>
        <mxCell id="uApP3Ad0hTk_tkcARhOH-20" style="edgeStyle=orthogonalEdgeStyle;rounded=0;orthogonalLoop=1;jettySize=auto;html=1;exitX=1;exitY=0.25;exitDx=0;exitDy=0;" edge="1" parent="1" source="uApP3Ad0hTk_tkcARhOH-8">
          <mxGeometry relative="1" as="geometry">
            <mxPoint x="600" y="343" as="targetPoint" />
          </mxGeometry>
        </mxCell>
        <mxCell id="uApP3Ad0hTk_tkcARhOH-8" value="存储器" style="whiteSpace=wrap;html=1;align=center;" vertex="1" parent="1">
          <mxGeometry x="490" y="330" width="70" height="50" as="geometry" />
        </mxCell>
        <mxCell id="uApP3Ad0hTk_tkcARhOH-11" value="" style="edgeStyle=elbowEdgeStyle;elbow=horizontal;endArrow=classic;html=1;curved=0;rounded=0;endSize=8;startSize=8;" edge="1" parent="1" target="uApP3Ad0hTk_tkcARhOH-5">
          <mxGeometry width="50" height="50" relative="1" as="geometry">
            <mxPoint x="150" y="410" as="sourcePoint" />
            <mxPoint x="110" y="400" as="targetPoint" />
            <Array as="points">
              <mxPoint x="150" y="405" />
            </Array>
          </mxGeometry>
        </mxCell>
        <mxCell id="uApP3Ad0hTk_tkcARhOH-12" value="开始" style="text;html=1;strokeColor=none;fillColor=none;align=center;verticalAlign=middle;whiteSpace=wrap;rounded=0;" vertex="1" parent="1">
          <mxGeometry x="120" y="400" width="60" height="25" as="geometry" />
        </mxCell>
        <mxCell id="uApP3Ad0hTk_tkcARhOH-15" value="" style="endArrow=classic;startArrow=classic;html=1;rounded=0;entryX=0.5;entryY=1;entryDx=0;entryDy=0;" edge="1" parent="1" source="uApP3Ad0hTk_tkcARhOH-6" target="uApP3Ad0hTk_tkcARhOH-5">
          <mxGeometry width="50" height="50" relative="1" as="geometry">
            <mxPoint x="120" y="650" as="sourcePoint" />
            <mxPoint x="170" y="600" as="targetPoint" />
          </mxGeometry>
        </mxCell>
        <mxCell id="uApP3Ad0hTk_tkcARhOH-16" value="" style="endArrow=classic;html=1;rounded=0;exitX=1;exitY=0.75;exitDx=0;exitDy=0;" edge="1" parent="1" source="uApP3Ad0hTk_tkcARhOH-4" target="uApP3Ad0hTk_tkcARhOH-7">
          <mxGeometry width="50" height="50" relative="1" as="geometry">
            <mxPoint x="250" y="680" as="sourcePoint" />
            <mxPoint x="300" y="630" as="targetPoint" />
          </mxGeometry>
        </mxCell>
        <mxCell id="uApP3Ad0hTk_tkcARhOH-18" value="" style="edgeStyle=elbowEdgeStyle;elbow=horizontal;endArrow=classic;html=1;curved=0;rounded=0;endSize=8;startSize=8;entryX=0;entryY=0.25;entryDx=0;entryDy=0;" edge="1" parent="1" target="uApP3Ad0hTk_tkcARhOH-7">
          <mxGeometry width="50" height="50" relative="1" as="geometry">
            <mxPoint x="380" y="340" as="sourcePoint" />
            <mxPoint x="420" y="340" as="targetPoint" />
            <Array as="points">
              <mxPoint x="380" y="350" />
            </Array>
          </mxGeometry>
        </mxCell>
        <mxCell id="uApP3Ad0hTk_tkcARhOH-21" value="" style="endArrow=classic;html=1;rounded=0;entryX=0.529;entryY=0.833;entryDx=0;entryDy=0;entryPerimeter=0;" edge="1" parent="1" target="uApP3Ad0hTk_tkcARhOH-2">
          <mxGeometry width="50" height="50" relative="1" as="geometry">
            <mxPoint x="580" y="340" as="sourcePoint" />
            <mxPoint x="340" y="640" as="targetPoint" />
            <Array as="points">
              <mxPoint x="580" y="520" />
              <mxPoint x="420" y="520" />
              <mxPoint x="260" y="520" />
            </Array>
          </mxGeometry>
        </mxCell>
        <mxCell id="uApP3Ad0hTk_tkcARhOH-23" value="" style="endArrow=classic;html=1;rounded=0;exitX=1;exitY=0.75;exitDx=0;exitDy=0;" edge="1" parent="1" source="uApP3Ad0hTk_tkcARhOH-5">
          <mxGeometry width="50" height="50" relative="1" as="geometry">
            <mxPoint x="330" y="670" as="sourcePoint" />
            <mxPoint x="380" y="470" as="targetPoint" />
            <Array as="points">
              <mxPoint x="380" y="413" />
            </Array>
          </mxGeometry>
        </mxCell>
        <mxCell id="uApP3Ad0hTk_tkcARhOH-28" value="系统" style="text;html=1;strokeColor=none;fillColor=none;align=center;verticalAlign=middle;whiteSpace=wrap;rounded=0;" vertex="1" parent="1">
          <mxGeometry x="354" y="320" width="60" height="30" as="geometry" />
        </mxCell>
        <mxCell id="uApP3Ad0hTk_tkcARhOH-29" value="系统" style="text;html=1;strokeColor=none;fillColor=none;align=center;verticalAlign=middle;whiteSpace=wrap;rounded=0;" vertex="1" parent="1">
          <mxGeometry x="550" y="320" width="60" height="30" as="geometry" />
        </mxCell>
        <mxCell id="uApP3Ad0hTk_tkcARhOH-30" value="Ctrl" style="text;html=1;strokeColor=none;fillColor=none;align=center;verticalAlign=middle;whiteSpace=wrap;rounded=0;" vertex="1" parent="1">
          <mxGeometry x="440" y="382.5" width="60" height="30" as="geometry" />
        </mxCell>
        <mxCell id="uApP3Ad0hTk_tkcARhOH-31" value="失败" style="text;html=1;strokeColor=none;fillColor=none;align=center;verticalAlign=middle;whiteSpace=wrap;rounded=0;" vertex="1" parent="1">
          <mxGeometry x="350" y="470" width="60" height="30" as="geometry" />
        </mxCell>
        <mxCell id="uApP3Ad0hTk_tkcARhOH-32" value="10" style="text;html=1;strokeColor=none;fillColor=none;align=center;verticalAlign=middle;whiteSpace=wrap;rounded=0;" vertex="1" parent="1">
          <mxGeometry x="330" y="330" width="60" height="30" as="geometry" />
        </mxCell>
        <mxCell id="uApP3Ad0hTk_tkcARhOH-33" value="11" style="text;html=1;strokeColor=none;fillColor=none;align=center;verticalAlign=middle;whiteSpace=wrap;rounded=0;" vertex="1" parent="1">
          <mxGeometry x="330" y="350" width="60" height="30" as="geometry" />
        </mxCell>
        <mxCell id="uApP3Ad0hTk_tkcARhOH-34" value="" style="whiteSpace=wrap;html=1;align=center;" vertex="1" parent="1">
          <mxGeometry x="120" y="640" width="520" height="240" as="geometry" />
        </mxCell>
        <mxCell id="uApP3Ad0hTk_tkcARhOH-35" value="" style="whiteSpace=wrap;html=1;align=center;" vertex="1" parent="1">
          <mxGeometry x="160" y="650" width="160" height="190" as="geometry" />
        </mxCell>
        <mxCell id="uApP3Ad0hTk_tkcARhOH-36" value="" style="whiteSpace=wrap;html=1;align=center;" vertex="1" parent="1">
          <mxGeometry x="414" y="650" width="176" height="160" as="geometry" />
        </mxCell>
        <mxCell id="uApP3Ad0hTk_tkcARhOH-38" style="edgeStyle=orthogonalEdgeStyle;rounded=0;orthogonalLoop=1;jettySize=auto;html=1;exitX=1;exitY=0.75;exitDx=0;exitDy=0;entryX=0.163;entryY=0.269;entryDx=0;entryDy=0;entryPerimeter=0;" edge="1" parent="1" source="uApP3Ad0hTk_tkcARhOH-37" target="uApP3Ad0hTk_tkcARhOH-36">
          <mxGeometry relative="1" as="geometry" />
        </mxCell>
        <mxCell id="uApP3Ad0hTk_tkcARhOH-37" value="向量产生电路" style="whiteSpace=wrap;html=1;align=center;" vertex="1" parent="1">
          <mxGeometry x="180" y="670" width="120" height="30" as="geometry" />
        </mxCell>
        <mxCell id="uApP3Ad0hTk_tkcARhOH-41" style="edgeStyle=orthogonalEdgeStyle;rounded=0;orthogonalLoop=1;jettySize=auto;html=1;exitX=1;exitY=0.5;exitDx=0;exitDy=0;entryX=0;entryY=0.5;entryDx=0;entryDy=0;" edge="1" parent="1" source="uApP3Ad0hTk_tkcARhOH-39" target="uApP3Ad0hTk_tkcARhOH-40">
          <mxGeometry relative="1" as="geometry" />
        </mxCell>
        <mxCell id="uApP3Ad0hTk_tkcARhOH-39" value="MUX" style="whiteSpace=wrap;html=1;align=center;" vertex="1" parent="1">
          <mxGeometry x="440" y="655" width="40" height="60" as="geometry" />
        </mxCell>
        <mxCell id="uApP3Ad0hTk_tkcARhOH-40" value="存储器" style="whiteSpace=wrap;html=1;align=center;" vertex="1" parent="1">
          <mxGeometry x="510" y="662.5" width="70" height="45" as="geometry" />
        </mxCell>
        <mxCell id="uApP3Ad0hTk_tkcARhOH-44" style="edgeStyle=orthogonalEdgeStyle;rounded=0;orthogonalLoop=1;jettySize=auto;html=1;exitX=0.5;exitY=0;exitDx=0;exitDy=0;entryX=0.5;entryY=1;entryDx=0;entryDy=0;" edge="1" parent="1" source="uApP3Ad0hTk_tkcARhOH-42" target="uApP3Ad0hTk_tkcARhOH-37">
          <mxGeometry relative="1" as="geometry" />
        </mxCell>
        <mxCell id="uApP3Ad0hTk_tkcARhOH-46" style="edgeStyle=orthogonalEdgeStyle;rounded=0;orthogonalLoop=1;jettySize=auto;html=1;exitX=1;exitY=0.25;exitDx=0;exitDy=0;entryX=0.5;entryY=1;entryDx=0;entryDy=0;" edge="1" parent="1" source="uApP3Ad0hTk_tkcARhOH-42" target="uApP3Ad0hTk_tkcARhOH-39">
          <mxGeometry relative="1" as="geometry" />
        </mxCell>
        <mxCell id="uApP3Ad0hTk_tkcARhOH-42" value="BIST控制电路" style="whiteSpace=wrap;html=1;align=center;" vertex="1" parent="1">
          <mxGeometry x="180" y="730" width="120" height="30" as="geometry" />
        </mxCell>
        <mxCell id="uApP3Ad0hTk_tkcARhOH-43" value="响应分析电路" style="whiteSpace=wrap;html=1;align=center;" vertex="1" parent="1">
          <mxGeometry x="180" y="790" width="120" height="30" as="geometry" />
        </mxCell>
        <mxCell id="uApP3Ad0hTk_tkcARhOH-45" value="" style="endArrow=classic;startArrow=classic;html=1;rounded=0;entryX=0.5;entryY=1;entryDx=0;entryDy=0;" edge="1" parent="1" source="uApP3Ad0hTk_tkcARhOH-43" target="uApP3Ad0hTk_tkcARhOH-42">
          <mxGeometry width="50" height="50" relative="1" as="geometry">
            <mxPoint x="20" y="820" as="sourcePoint" />
            <mxPoint x="70" y="770" as="targetPoint" />
          </mxGeometry>
        </mxCell>
        <mxCell id="uApP3Ad0hTk_tkcARhOH-48" value="" style="endArrow=classic;html=1;rounded=0;exitX=1;exitY=0.25;exitDx=0;exitDy=0;entryX=0.962;entryY=0.141;entryDx=0;entryDy=0;entryPerimeter=0;" edge="1" parent="1" source="uApP3Ad0hTk_tkcARhOH-40" target="uApP3Ad0hTk_tkcARhOH-34">
          <mxGeometry width="50" height="50" relative="1" as="geometry">
            <mxPoint x="590" y="990" as="sourcePoint" />
            <mxPoint x="640" y="940" as="targetPoint" />
          </mxGeometry>
        </mxCell>
        <mxCell id="uApP3Ad0hTk_tkcARhOH-49" value="" style="endArrow=classic;html=1;rounded=0;" edge="1" parent="1">
          <mxGeometry width="50" height="50" relative="1" as="geometry">
            <mxPoint x="360" y="670" as="sourcePoint" />
            <mxPoint x="440" y="670" as="targetPoint" />
          </mxGeometry>
        </mxCell>
        <mxCell id="uApP3Ad0hTk_tkcARhOH-50" value="" style="endArrow=classic;html=1;rounded=0;" edge="1" parent="1">
          <mxGeometry width="50" height="50" relative="1" as="geometry">
            <mxPoint x="130" y="750" as="sourcePoint" />
            <mxPoint x="180" y="750" as="targetPoint" />
          </mxGeometry>
        </mxCell>
        <mxCell id="uApP3Ad0hTk_tkcARhOH-51" value="" style="endArrow=classic;html=1;rounded=0;" edge="1" parent="1">
          <mxGeometry width="50" height="50" relative="1" as="geometry">
            <mxPoint x="300" y="750" as="sourcePoint" />
            <mxPoint x="350" y="810" as="targetPoint" />
            <Array as="points">
              <mxPoint x="350" y="750" />
            </Array>
          </mxGeometry>
        </mxCell>
        <mxCell id="uApP3Ad0hTk_tkcARhOH-52" value="" style="endArrow=classic;html=1;rounded=0;entryX=0.5;entryY=1;entryDx=0;entryDy=0;" edge="1" parent="1" target="uApP3Ad0hTk_tkcARhOH-43">
          <mxGeometry width="50" height="50" relative="1" as="geometry">
            <mxPoint x="600" y="680" as="sourcePoint" />
            <mxPoint x="200" y="980" as="targetPoint" />
            <Array as="points">
              <mxPoint x="600" y="850" />
              <mxPoint x="240" y="850" />
            </Array>
          </mxGeometry>
        </mxCell>
      </root>
    </mxGraphModel>
  </diagram>
</mxfile>
